<svg width="80" height="80" viewBox="0 0 80 80" fill="none" xmlns="http://www.w3.org/2000/svg">
<rect width="80" height="80" fill="white"/>
<path d="M72.0598 58.34C65.3009 58.34 59.122 54.5213 56.0993 48.4759L54.7614 45.8H49.835V58.34H40.2061V21H58.904C67.1894 21 71.8919 26.4862 71.8919 33.428C71.8919 39.9219 67.9172 43.3928 64.4463 44.6244L72.0598 58.34ZM57.4485 37.4027C59.9677 37.4027 62.095 36.0032 62.095 33.372C62.095 30.8528 59.9677 29.3973 57.4485 29.3973H49.835V37.4027H57.4485Z" fill="black"/>
<path d="M45.0195 58.34H33.6551L25.5377 45.8L17.4203 58.34H6L19.0438 39.1942L6.83973 21H12.1166C15.9043 21 19.4255 22.9487 21.4371 26.158L25.5377 32.7002L32.7594 21H44.1797L32.0316 39.1382L45.0195 58.34Z" fill="black"/>
</svg>
